<?xml version="1.0" standalone="no"?>
<!DOCTYPE svg PUBLIC "-//W3C//DTD SVG 20010904//EN"
 "http://www.w3.org/TR/2001/REC-SVG-20010904/DTD/svg10.dtd">
<svg version="1.0" xmlns="http://www.w3.org/2000/svg"
 width="256.000000pt" height="256.000000pt" viewBox="0 0 256.000000 256.000000"
 preserveAspectRatio="xMidYMid meet">

<g transform="translate(0.000000,256.000000) scale(0.100000,-0.100000)"
fill="#000000" stroke="none">
<path d="M0 1280 l0 -1280 1280 0 1280 0 0 1280 0 1280 -1280 0 -1280 0 0
-1280z m1751 1003 c63 -28 128 -89 151 -141 26 -59 26 -161 -2 -234 -38 -103
-159 -235 -431 -472 -78 -67 -141 -142 -175 -206 -29 -54 -25 -176 9 -264 40
-103 34 -145 -23 -165 -62 -21 -97 11 -140 127 -56 153 -57 238 -4 346 37 76
95 138 263 284 239 207 317 305 328 416 10 97 -38 157 -135 172 -191 29 -627
-145 -846 -336 -32 -28 -69 -58 -82 -67 -46 -30 -129 7 -155 68 -12 31 -12 33
23 63 98 84 504 307 672 368 146 54 227 68 371 65 106 -3 138 -7 176 -24z
m-291 -1696 c61 -31 59 -102 -5 -193 -54 -75 -98 -104 -161 -104 -65 0 -101
27 -114 83 -11 51 2 95 45 144 62 73 168 104 235 70z"/>
</g>
</svg>
