# Blender 4.5.0
# www.blender.org
mtllib glass.mtl
o main_glass
v 0.025000 0.000000 0.000000
v 0.024520 0.000000 -0.004877
v 0.023097 0.000000 -0.009567
v 0.020787 0.000000 -0.013889
v 0.017678 0.000000 -0.017678
v 0.013889 0.000000 -0.020787
v 0.009567 0.000000 -0.023097
v 0.004877 0.000000 -0.024520
v 0.000000 0.000000 -0.025000
v -0.004877 0.000000 -0.024520
v -0.009567 0.000000 -0.023097
v -0.013889 0.000000 -0.020787
v -0.017678 0.000000 -0.017678
v -0.020787 0.000000 -0.013889
v -0.023097 0.000000 -0.009567
v -0.024520 0.000000 -0.004877
v -0.025000 0.000000 0.000000
v -0.024520 0.000000 0.004877
v -0.023097 0.000000 0.009567
v -0.020787 0.000000 0.013889
v -0.017678 0.000000 0.017678
v -0.013889 0.000000 0.020787
v -0.009567 0.000000 0.023097
v -0.004877 0.000000 0.024520
v 0.000000 0.000000 0.025000
v 0.004877 0.000000 0.024520
v 0.009567 0.000000 0.023097
v 0.013889 0.000000 0.020787
v 0.017678 0.000000 0.017678
v 0.020787 0.000000 0.013889
v 0.023097 0.000000 0.009567
v 0.024520 0.000000 0.004877
v 0.031564 0.085000 0.000000
v 0.030958 0.085000 -0.006158
v 0.029162 0.085000 -0.012079
v 0.026245 0.085000 -0.017536
v 0.022319 0.085000 -0.022319
v 0.017536 0.085000 -0.026245
v 0.012079 0.085000 -0.029162
v 0.006158 0.085000 -0.030958
v 0.000000 0.085000 -0.031564
v -0.006158 0.085000 -0.030958
v -0.012079 0.085000 -0.029162
v -0.017536 0.085000 -0.026245
v -0.022319 0.085000 -0.022319
v -0.026245 0.085000 -0.017536
v -0.029162 0.085000 -0.012079
v -0.030958 0.085000 -0.006158
v -0.031564 0.085000 0.000000
v -0.030958 0.085000 0.006158
v -0.029162 0.085000 0.012079
v -0.026245 0.085000 0.017536
v -0.022319 0.085000 0.022319
v -0.017536 0.085000 0.026245
v -0.012079 0.085000 0.029162
v -0.006158 0.085000 0.030958
v 0.000000 0.085000 0.031564
v 0.006158 0.085000 0.030958
v 0.012079 0.085000 0.029162
v 0.017536 0.085000 0.026245
v 0.022319 0.085000 0.022319
v 0.026245 0.085000 0.017536
v 0.029162 0.085000 0.012079
v 0.030958 0.085000 0.006158
v 0.029555 0.085000 0.000000
v 0.028987 0.085000 -0.005766
v 0.027305 0.085000 -0.011310
v 0.024574 0.085000 -0.016420
v 0.020898 0.085000 -0.020898
v 0.016420 0.085000 -0.024574
v 0.011310 0.085000 -0.027305
v 0.005766 0.085000 -0.028987
v 0.000000 0.085000 -0.029555
v -0.005766 0.085000 -0.028987
v -0.011310 0.085000 -0.027305
v -0.016420 0.085000 -0.024574
v -0.020898 0.085000 -0.020898
v -0.024574 0.085000 -0.016420
v -0.027305 0.085000 -0.011310
v -0.028987 0.085000 -0.005766
v -0.029555 0.085000 0.000000
v -0.028987 0.085000 0.005766
v -0.027305 0.085000 0.011310
v -0.024574 0.085000 0.016420
v -0.020898 0.085000 0.020898
v -0.016420 0.085000 0.024574
v -0.011310 0.085000 0.027305
v -0.005766 0.085000 0.028987
v 0.000000 0.085000 0.029555
v 0.005766 0.085000 0.028987
v 0.011310 0.085000 0.027305
v 0.016420 0.085000 0.024574
v 0.020898 0.085000 0.020898
v 0.024574 0.085000 0.016420
v 0.027305 0.085000 0.011310
v 0.028987 0.085000 0.005766
v 0.023596 0.003958 0.000000
v 0.023143 0.003958 -0.004603
v 0.021800 0.003958 -0.009030
v 0.019619 0.003958 -0.013109
v 0.016685 0.003958 -0.016685
v 0.013109 0.003958 -0.019619
v 0.009030 0.003958 -0.021800
v 0.004603 0.003958 -0.023143
v 0.000000 0.003958 -0.023596
v -0.004603 0.003958 -0.023143
v -0.009030 0.003958 -0.021800
v -0.013109 0.003958 -0.019619
v -0.016685 0.003958 -0.016685
v -0.019619 0.003958 -0.013109
v -0.021800 0.003958 -0.009030
v -0.023143 0.003958 -0.004603
v -0.023596 0.003958 0.000000
v -0.023143 0.003958 0.004603
v -0.021800 0.003958 0.009030
v -0.019619 0.003958 0.013109
v -0.016685 0.003958 0.016685
v -0.013109 0.003958 0.019619
v -0.009030 0.003958 0.021800
v -0.004603 0.003958 0.023143
v 0.000000 0.003958 0.023596
v 0.004603 0.003958 0.023143
v 0.009030 0.003958 0.021800
v 0.013109 0.003958 0.019619
v 0.016685 0.003958 0.016685
v 0.019619 0.003958 0.013109
v 0.021800 0.003958 0.009030
v 0.023143 0.003958 0.004603
vn -0.0000 -1.0000 -0.0000
vn 0.9970 -0.0770 -0.0000
vn 0.9779 -0.0770 -0.1945
vn 0.9211 -0.0770 -0.3815
vn 0.8290 -0.0770 -0.5539
vn 0.7050 -0.0770 -0.7050
vn 0.5539 -0.0770 -0.8290
vn 0.3815 -0.0770 -0.9211
vn 0.1945 -0.0770 -0.9779
vn -0.0000 -0.0770 -0.9970
vn -0.1945 -0.0770 -0.9779
vn -0.3815 -0.0770 -0.9211
vn -0.5539 -0.0770 -0.8290
vn -0.7050 -0.0770 -0.7050
vn -0.8290 -0.0770 -0.5539
vn -0.9211 -0.0770 -0.3815
vn -0.9779 -0.0770 -0.1945
vn -0.9970 -0.0770 -0.0000
vn -0.9779 -0.0770 0.1945
vn -0.9211 -0.0770 0.3815
vn -0.8290 -0.0770 0.5539
vn -0.7050 -0.0770 0.7050
vn -0.5539 -0.0770 0.8290
vn -0.3815 -0.0770 0.9211
vn -0.1945 -0.0770 0.9779
vn -0.0000 -0.0770 0.9970
vn 0.1945 -0.0770 0.9779
vn 0.3815 -0.0770 0.9211
vn 0.5539 -0.0770 0.8290
vn 0.7050 -0.0770 0.7050
vn 0.8290 -0.0770 0.5539
vn 0.9211 -0.0770 0.3815
vn 0.9779 -0.0770 0.1945
vn -0.0000 1.0000 -0.0000
vn -0.9973 0.0733 -0.0000
vn -0.9781 0.0733 0.1946
vn -0.9214 0.0733 0.3817
vn -0.8292 0.0733 0.5541
vn -0.7052 0.0733 0.7052
vn -0.5541 0.0733 0.8292
vn -0.3817 0.0733 0.9214
vn -0.1946 0.0733 0.9781
vn -0.0000 0.0733 0.9973
vn 0.1946 0.0733 0.9781
vn 0.3817 0.0733 0.9214
vn 0.5541 0.0733 0.8292
vn 0.7052 0.0733 0.7052
vn 0.8292 0.0733 0.5541
vn 0.9214 0.0733 0.3817
vn 0.9781 0.0733 0.1946
vn 0.9973 0.0733 -0.0000
vn 0.9781 0.0733 -0.1946
vn 0.9214 0.0733 -0.3817
vn 0.8292 0.0733 -0.5541
vn 0.7052 0.0733 -0.7052
vn 0.5541 0.0733 -0.8292
vn 0.3817 0.0733 -0.9214
vn 0.1946 0.0733 -0.9781
vn -0.0000 0.0733 -0.9973
vn -0.1946 0.0733 -0.9781
vn -0.3817 0.0733 -0.9214
vn -0.5541 0.0733 -0.8292
vn -0.7052 0.0733 -0.7052
vn -0.8292 0.0733 -0.5541
vn -0.9214 0.0733 -0.3817
vn -0.9781 0.0733 -0.1946
vt 0.206161 0.000000
vt 0.129969 0.000000
vt 0.067996 0.000000
vt 0.022626 0.000000
vt -0.004399 0.000000
vt -0.012041 0.000000
vt -0.000005 0.000000
vt 0.031246 0.000000
vt 0.080511 0.000000
vt 0.145896 0.000000
vt 0.224890 0.000000
vt 0.314455 0.000000
vt 0.411151 0.000000
vt 0.511260 0.000000
vt 0.610937 0.000000
vt 0.706351 0.000000
vt 0.793835 0.000000
vt 0.870026 0.000000
vt 0.931998 0.000000
vt 0.977368 0.000000
vt 1.004394 0.000000
vt 1.012035 0.000000
vt 1.000000 0.000000
vt 0.968750 0.000000
vt 0.937500 0.000000
vt 0.906250 0.000000
vt 0.875000 0.000000
vt 0.843750 0.000000
vt 0.812500 0.000000
vt 0.781250 0.000000
vt 0.750000 0.000000
vt 0.293646 0.000000
vt 0.781250 1.000000
vt 0.750000 1.000000
vt 0.812500 1.000000
vt 0.843750 1.000000
vt 0.875000 1.000000
vt 0.906250 1.000000
vt 0.937500 1.000000
vt 0.968750 1.000000
vt 1.000000 1.000000
vt 0.000000 0.000000
vt 0.031250 0.000000
vt 0.031250 1.000000
vt 0.000000 1.000000
vt 0.062500 0.000000
vt 0.062500 1.000000
vt 0.093750 0.000000
vt 0.093750 1.000000
vt 0.125000 0.000000
vt 0.125000 1.000000
vt 0.156250 0.000000
vt 0.156250 1.000000
vt 0.187500 0.000000
vt 0.187500 1.000000
vt 0.218750 0.000000
vt 0.218750 1.000000
vt 0.250000 0.000000
vt 0.250000 1.000000
vt 0.281250 0.000000
vt 0.281250 1.000000
vt 0.312500 0.000000
vt 0.312500 1.000000
vt 0.343750 0.000000
vt 0.343750 1.000000
vt 0.375000 0.000000
vt 0.375000 1.000000
vt 0.406250 0.000000
vt 0.406250 1.000000
vt 0.437500 0.000000
vt 0.437500 1.000000
vt 0.468750 0.000000
vt 0.468750 1.000000
vt 0.500000 0.000000
vt 0.500000 1.000000
vt 0.531250 0.000000
vt 0.531250 1.000000
vt 0.562500 0.000000
vt 0.562500 1.000000
vt 0.593750 0.000000
vt 0.593750 1.000000
vt 0.625000 0.000000
vt 0.625000 1.000000
vt 0.656250 0.000000
vt 0.656250 1.000000
vt 0.687500 0.000000
vt 0.687500 1.000000
vt 0.718750 0.000000
vt 0.718750 1.000000
vt 1.012035 1.000000
vt 1.004393 1.000000
vt 0.977368 1.000000
vt 0.931997 1.000000
vt 0.870026 1.000000
vt 0.793834 1.000000
vt 0.706350 1.000000
vt 0.610937 1.000000
vt 0.511260 1.000000
vt 0.411150 1.000000
vt 0.314455 1.000000
vt 0.224890 1.000000
vt 0.145898 1.000000
vt 0.080514 1.000000
vt 0.031250 1.000000
vt -0.000000 1.000000
vt -0.012035 1.000000
vt -0.004393 1.000000
vt 0.022632 1.000000
vt 0.068003 1.000000
vt 0.129975 1.000000
vt 0.206167 1.000000
s 0
usemtl Material
f 31/1/1 30/2/1 29/3/1
f 29/3/1 28/4/1 27/5/1
f 27/5/1 26/6/1 25/7/1
f 29/3/1 27/5/1 25/7/1
f 25/7/1 24/8/1 23/9/1
f 23/9/1 22/10/1 21/11/1
f 25/7/1 23/9/1 21/11/1
f 21/11/1 20/12/1 19/13/1
f 19/13/1 18/14/1 17/15/1
f 21/11/1 19/13/1 17/15/1
f 25/7/1 21/11/1 17/15/1
f 17/15/1 16/16/1 15/17/1
f 15/17/1 14/18/1 13/19/1
f 17/15/1 15/17/1 13/19/1
f 13/19/1 12/20/1 11/21/1
f 11/21/1 10/22/1 9/23/1
f 13/19/1 11/21/1 9/23/1
f 17/15/1 13/19/1 9/23/1
f 9/23/1 8/24/1 7/25/1
f 7/25/1 6/26/1 5/27/1
f 9/23/1 7/25/1 5/27/1
f 5/27/1 4/28/1 3/29/1
f 3/29/1 2/30/1 1/31/1
f 5/27/1 3/29/1 1/31/1
f 9/23/1 5/27/1 1/31/1
f 17/15/1 9/23/1 1/31/1
f 25/7/1 17/15/1 1/31/1
f 29/3/1 25/7/1 1/31/1
f 31/1/1 29/3/1 1/31/1
f 32/32/1 31/1/1 1/31/1
s 1
f 1/31/2 2/30/3 34/33/3
f 34/33/3 33/34/2 1/31/2
f 2/30/3 3/29/4 35/35/4
f 35/35/4 34/33/3 2/30/3
f 3/29/4 4/28/5 36/36/5
f 36/36/5 35/35/4 3/29/4
f 4/28/5 5/27/6 37/37/6
f 37/37/6 36/36/5 4/28/5
f 5/27/6 6/26/7 38/38/7
f 38/38/7 37/37/6 5/27/6
f 6/26/7 7/25/8 39/39/8
f 39/39/8 38/38/7 6/26/7
f 7/25/8 8/24/9 40/40/9
f 40/40/9 39/39/8 7/25/8
f 8/24/9 9/23/10 41/41/10
f 41/41/10 40/40/9 8/24/9
f 9/42/10 10/43/11 42/44/11
f 42/44/11 41/45/10 9/42/10
f 10/43/11 11/46/12 43/47/12
f 43/47/12 42/44/11 10/43/11
f 11/46/12 12/48/13 44/49/13
f 44/49/13 43/47/12 11/46/12
f 12/48/13 13/50/14 45/51/14
f 45/51/14 44/49/13 12/48/13
f 13/50/14 14/52/15 46/53/15
f 46/53/15 45/51/14 13/50/14
f 14/52/15 15/54/16 47/55/16
f 47/55/16 46/53/15 14/52/15
f 15/54/16 16/56/17 48/57/17
f 48/57/17 47/55/16 15/54/16
f 16/56/17 17/58/18 49/59/18
f 49/59/18 48/57/17 16/56/17
f 17/58/18 18/60/19 50/61/19
f 50/61/19 49/59/18 17/58/18
f 18/60/19 19/62/20 51/63/20
f 51/63/20 50/61/19 18/60/19
f 19/62/20 20/64/21 52/65/21
f 52/65/21 51/63/20 19/62/20
f 20/64/21 21/66/22 53/67/22
f 53/67/22 52/65/21 20/64/21
f 21/66/22 22/68/23 54/69/23
f 54/69/23 53/67/22 21/66/22
f 22/68/23 23/70/24 55/71/24
f 55/71/24 54/69/23 22/68/23
f 23/70/24 24/72/25 56/73/25
f 56/73/25 55/71/24 23/70/24
f 24/72/25 25/74/26 57/75/26
f 57/75/26 56/73/25 24/72/25
f 25/74/26 26/76/27 58/77/27
f 58/77/27 57/75/26 25/74/26
f 26/76/27 27/78/28 59/79/28
f 59/79/28 58/77/27 26/76/27
f 27/78/28 28/80/29 60/81/29
f 60/81/29 59/79/28 27/78/28
f 28/80/29 29/82/30 61/83/30
f 61/83/30 60/81/29 28/80/29
f 29/82/30 30/84/31 62/85/31
f 62/85/31 61/83/30 29/82/30
f 30/84/31 31/86/32 63/87/32
f 63/87/32 62/85/31 30/84/31
f 31/86/32 32/88/33 64/89/33
f 64/89/33 63/87/32 31/86/32
f 32/88/33 1/31/2 33/34/2
f 33/34/2 64/89/33 32/88/33
s 0
f 97/34/34 98/33/34 99/35/34
f 99/35/34 100/36/34 101/37/34
f 101/37/34 102/38/34 103/39/34
f 99/35/34 101/37/34 103/39/34
f 103/39/34 104/40/34 105/41/34
f 105/41/34 106/90/34 107/91/34
f 103/39/34 105/41/34 107/91/34
f 107/91/34 108/92/34 109/93/34
f 109/93/34 110/94/34 111/95/34
f 107/91/34 109/93/34 111/95/34
f 103/39/34 107/91/34 111/95/34
f 111/95/34 112/96/34 113/97/34
f 113/97/34 114/98/34 115/99/34
f 111/95/34 113/97/34 115/99/34
f 115/99/34 116/100/34 117/101/34
f 117/101/34 118/102/34 119/103/34
f 115/99/34 117/101/34 119/103/34
f 111/95/34 115/99/34 119/103/34
f 119/103/34 120/104/34 121/105/34
f 121/105/34 122/106/34 123/107/34
f 119/103/34 121/105/34 123/107/34
f 123/107/34 124/108/34 125/109/34
f 125/109/34 126/110/34 127/111/34
f 123/107/34 125/109/34 127/111/34
f 119/103/34 123/107/34 127/111/34
f 111/95/34 119/103/34 127/111/34
f 103/39/34 111/95/34 127/111/34
f 99/35/34 103/39/34 127/111/34
f 97/34/34 99/35/34 127/111/34
f 128/89/34 97/34/34 127/111/34
f 33/34/34 34/33/34 66/33/34
f 66/33/34 65/34/34 33/34/34
f 34/33/34 35/35/34 67/35/34
f 67/35/34 66/33/34 34/33/34
f 35/35/34 36/36/34 68/36/34
f 68/36/34 67/35/34 35/35/34
f 36/36/34 37/37/34 69/37/34
f 69/37/34 68/36/34 36/36/34
f 37/37/34 38/38/34 70/38/34
f 70/38/34 69/37/34 37/37/34
f 38/38/34 39/39/34 71/39/34
f 71/39/34 70/38/34 38/38/34
f 39/39/34 40/40/34 72/40/34
f 72/40/34 71/39/34 39/39/34
f 40/40/34 41/41/34 73/41/34
f 73/41/34 72/40/34 40/40/34
f 41/41/34 42/90/34 74/90/34
f 74/90/34 73/41/34 41/41/34
f 42/90/34 43/91/34 75/91/34
f 75/91/34 74/90/34 42/90/34
f 43/91/34 44/92/34 76/92/34
f 76/92/34 75/91/34 43/91/34
f 44/92/34 45/93/34 77/93/34
f 77/93/34 76/92/34 44/92/34
f 45/93/34 46/94/34 78/94/34
f 78/94/34 77/93/34 45/93/34
f 46/94/34 47/95/34 79/95/34
f 79/95/34 78/94/34 46/94/34
f 47/95/34 48/96/34 80/96/34
f 80/96/34 79/95/34 47/95/34
f 48/96/34 49/97/34 81/97/34
f 81/97/34 80/96/34 48/96/34
f 49/97/34 50/98/34 82/98/34
f 82/98/34 81/97/34 49/97/34
f 50/98/34 51/99/34 83/99/34
f 83/99/34 82/98/34 50/98/34
f 51/99/34 52/100/34 84/100/34
f 84/100/34 83/99/34 51/99/34
f 52/100/34 53/101/34 85/101/34
f 85/101/34 84/100/34 52/100/34
f 53/101/34 54/102/34 86/102/34
f 86/102/34 85/101/34 53/101/34
f 54/102/34 55/103/34 87/103/34
f 87/103/34 86/102/34 54/102/34
f 55/103/34 56/104/34 88/104/34
f 88/104/34 87/103/34 55/103/34
f 56/104/34 57/105/34 89/105/34
f 89/105/34 88/104/34 56/104/34
f 57/105/34 58/106/34 90/106/34
f 90/106/34 89/105/34 57/105/34
f 58/106/34 59/107/34 91/107/34
f 91/107/34 90/106/34 58/106/34
f 59/107/34 60/108/34 92/108/34
f 92/108/34 91/107/34 59/107/34
f 60/108/34 61/109/34 93/109/34
f 93/109/34 92/108/34 60/108/34
f 61/109/34 62/110/34 94/110/34
f 94/110/34 93/109/34 61/109/34
f 62/110/34 63/111/34 95/111/34
f 95/111/34 94/110/34 62/110/34
f 63/111/34 64/89/34 96/89/34
f 96/89/34 95/111/34 63/111/34
f 64/89/34 33/34/34 65/34/34
f 65/34/34 96/89/34 64/89/34
s 1
f 65/34/35 66/33/36 98/33/36
f 98/33/36 97/34/35 65/34/35
f 66/33/36 67/35/37 99/35/37
f 99/35/37 98/33/36 66/33/36
f 67/35/37 68/36/38 100/36/38
f 100/36/38 99/35/37 67/35/37
f 68/36/38 69/37/39 101/37/39
f 101/37/39 100/36/38 68/36/38
f 69/37/39 70/38/40 102/38/40
f 102/38/40 101/37/39 69/37/39
f 70/38/40 71/39/41 103/39/41
f 103/39/41 102/38/40 70/38/40
f 71/39/41 72/40/42 104/40/42
f 104/40/42 103/39/41 71/39/41
f 72/40/42 73/41/43 105/41/43
f 105/41/43 104/40/42 72/40/42
f 73/41/43 74/90/44 106/90/44
f 106/90/44 105/41/43 73/41/43
f 74/90/44 75/91/45 107/91/45
f 107/91/45 106/90/44 74/90/44
f 75/91/45 76/92/46 108/92/46
f 108/92/46 107/91/45 75/91/45
f 76/92/46 77/93/47 109/93/47
f 109/93/47 108/92/46 76/92/46
f 77/93/47 78/94/48 110/94/48
f 110/94/48 109/93/47 77/93/47
f 78/94/48 79/95/49 111/95/49
f 111/95/49 110/94/48 78/94/48
f 79/95/49 80/96/50 112/96/50
f 112/96/50 111/95/49 79/95/49
f 80/96/50 81/97/51 113/97/51
f 113/97/51 112/96/50 80/96/50
f 81/97/51 82/98/52 114/98/52
f 114/98/52 113/97/51 81/97/51
f 82/98/52 83/99/53 115/99/53
f 115/99/53 114/98/52 82/98/52
f 83/99/53 84/100/54 116/100/54
f 116/100/54 115/99/53 83/99/53
f 84/100/54 85/101/55 117/101/55
f 117/101/55 116/100/54 84/100/54
f 85/101/55 86/102/56 118/102/56
f 118/102/56 117/101/55 85/101/55
f 86/102/56 87/103/57 119/103/57
f 119/103/57 118/102/56 86/102/56
f 87/103/57 88/104/58 120/104/58
f 120/104/58 119/103/57 87/103/57
f 88/104/58 89/105/59 121/105/59
f 121/105/59 120/104/58 88/104/58
f 89/105/59 90/106/60 122/106/60
f 122/106/60 121/105/59 89/105/59
f 90/106/60 91/107/61 123/107/61
f 123/107/61 122/106/60 90/106/60
f 91/107/61 92/108/62 124/108/62
f 124/108/62 123/107/61 91/107/61
f 92/108/62 93/109/63 125/109/63
f 125/109/63 124/108/62 92/108/62
f 93/109/63 94/110/64 126/110/64
f 126/110/64 125/109/63 93/109/63
f 94/110/64 95/111/65 127/111/65
f 127/111/65 126/110/64 94/110/64
f 95/111/65 96/89/66 128/89/66
f 128/89/66 127/111/65 95/111/65
f 96/89/66 65/34/35 97/34/35
f 97/34/35 128/89/66 96/89/66
o Cylinder
v 0.000095 0.082539 -0.027821
v 0.000095 0.082539 -0.027821
v 0.005557 0.082539 -0.027283
v 0.005557 0.082539 -0.027283
v 0.010810 0.082539 -0.025690
v 0.010810 0.082539 -0.025690
v 0.015651 0.082539 -0.023102
v 0.015651 0.082539 -0.023102
v 0.019894 0.082539 -0.019620
v 0.019894 0.082539 -0.019620
v 0.023376 0.082539 -0.015377
v 0.023376 0.082539 -0.015377
v 0.025963 0.082539 -0.010536
v 0.025963 0.082539 -0.010536
v 0.027557 0.082539 -0.005283
v 0.027557 0.082539 -0.005283
v 0.028095 0.082539 0.000179
v 0.028095 0.082539 0.000179
v 0.027557 0.082539 0.005642
v 0.027557 0.082539 0.005642
v 0.025963 0.082539 0.010894
v 0.025963 0.082539 0.010894
v 0.023376 0.082539 0.015735
v 0.023376 0.082539 0.015735
v 0.019894 0.082539 0.019978
v 0.019894 0.082539 0.019978
v 0.015651 0.082539 0.023460
v 0.015651 0.082539 0.023460
v 0.010810 0.082539 0.026048
v 0.010810 0.082539 0.026048
v 0.005557 0.082539 0.027641
v 0.005557 0.082539 0.027641
v 0.000095 0.082539 0.028179
v 0.000095 0.082539 0.028179
v -0.005368 0.082539 0.027641
v -0.005368 0.082539 0.027641
v -0.010620 0.082539 0.026048
v -0.010620 0.082539 0.026048
v -0.015461 0.082539 0.023460
v -0.015461 0.082539 0.023460
v -0.019704 0.082539 0.019978
v -0.019704 0.082539 0.019978
v -0.023186 0.082539 0.015735
v -0.023186 0.082539 0.015735
v -0.025774 0.082539 0.010894
v -0.025774 0.082539 0.010894
v -0.027367 0.082539 0.005642
v -0.027367 0.082539 0.005642
v -0.027905 0.082539 0.000179
v -0.027905 0.082539 0.000179
v -0.027367 0.082539 -0.005283
v -0.027367 0.082539 -0.005283
v -0.025774 0.082539 -0.010536
v -0.025774 0.082539 -0.010536
v -0.023186 0.082539 -0.015377
v -0.023186 0.082539 -0.015377
v -0.019704 0.082539 -0.019620
v -0.019704 0.082539 -0.019620
v -0.015461 0.082539 -0.023102
v -0.015461 0.082539 -0.023102
v -0.010620 0.082539 -0.025690
v -0.010620 0.082539 -0.025690
v -0.005368 0.082539 -0.027283
v -0.005368 0.082539 -0.027283
vn -0.0000 -0.0000 -0.0000
vt 1.000000 0.500000
vt 1.000000 1.000000
vt 0.968750 1.000000
vt 0.968750 0.500000
vt 0.937500 1.000000
vt 0.937500 0.500000
vt 0.906250 1.000000
vt 0.906250 0.500000
vt 0.875000 1.000000
vt 0.875000 0.500000
vt 0.843750 1.000000
vt 0.843750 0.500000
vt 0.812500 1.000000
vt 0.812500 0.500000
vt 0.781250 1.000000
vt 0.781250 0.500000
vt 0.750000 1.000000
vt 0.750000 0.500000
vt 0.718750 1.000000
vt 0.718750 0.500000
vt 0.687500 1.000000
vt 0.687500 0.500000
vt 0.656250 1.000000
vt 0.656250 0.500000
vt 0.625000 1.000000
vt 0.625000 0.500000
vt 0.593750 1.000000
vt 0.593750 0.500000
vt 0.562500 1.000000
vt 0.562500 0.500000
vt 0.531250 1.000000
vt 0.531250 0.500000
vt 0.500000 1.000000
vt 0.500000 0.500000
vt 0.468750 1.000000
vt 0.468750 0.500000
vt 0.437500 1.000000
vt 0.437500 0.500000
vt 0.406250 1.000000
vt 0.406250 0.500000
vt 0.375000 1.000000
vt 0.375000 0.500000
vt 0.343750 1.000000
vt 0.343750 0.500000
vt 0.312500 1.000000
vt 0.312500 0.500000
vt 0.281250 1.000000
vt 0.281250 0.500000
vt 0.250000 1.000000
vt 0.250000 0.500000
vt 0.218750 1.000000
vt 0.218750 0.500000
vt 0.187500 1.000000
vt 0.187500 0.500000
vt 0.156250 1.000000
vt 0.156250 0.500000
vt 0.125000 1.000000
vt 0.125000 0.500000
vt 0.093750 1.000000
vt 0.093750 0.500000
vt 0.062500 1.000000
vt 0.062500 0.500000
vt 0.296822 0.485388
vt 0.250000 0.490000
vt 0.203178 0.485388
vt 0.158156 0.471731
vt 0.116663 0.449553
vt 0.080294 0.419706
vt 0.050447 0.383337
vt 0.028269 0.341844
vt 0.014612 0.296822
vt 0.010000 0.250000
vt 0.014612 0.203178
vt 0.028269 0.158156
vt 0.050447 0.116663
vt 0.080294 0.080294
vt 0.116663 0.050447
vt 0.158156 0.028269
vt 0.203178 0.014612
vt 0.250000 0.010000
vt 0.296822 0.014612
vt 0.341844 0.028269
vt 0.383337 0.050447
vt 0.419706 0.080294
vt 0.449553 0.116663
vt 0.471731 0.158156
vt 0.485388 0.203178
vt 0.490000 0.250000
vt 0.485388 0.296822
vt 0.471731 0.341844
vt 0.449553 0.383337
vt 0.419706 0.419706
vt 0.383337 0.449553
vt 0.341844 0.471731
vt 0.031250 1.000000
vt 0.031250 0.500000
vt 0.000000 1.000000
vt 0.000000 0.500000
vt 0.750000 0.490000
vt 0.796822 0.485388
vt 0.841844 0.471731
vt 0.883337 0.449553
vt 0.919706 0.419706
vt 0.949553 0.383337
vt 0.971731 0.341844
vt 0.985388 0.296822
vt 0.990000 0.250000
vt 0.985388 0.203178
vt 0.971731 0.158156
vt 0.949553 0.116663
vt 0.919706 0.080294
vt 0.883337 0.050447
vt 0.841844 0.028269
vt 0.796822 0.014612
vt 0.750000 0.010000
vt 0.703178 0.014612
vt 0.658156 0.028269
vt 0.616663 0.050447
vt 0.580294 0.080294
vt 0.550447 0.116663
vt 0.528269 0.158156
vt 0.514612 0.203178
vt 0.510000 0.250000
vt 0.514612 0.296822
vt 0.528269 0.341844
vt 0.550447 0.383337
vt 0.580294 0.419706
vt 0.616663 0.449553
vt 0.658156 0.471731
vt 0.703178 0.485388
s 0
usemtl Material.001
f 129/112/67 130/113/67 132/114/67 131/115/67
f 131/115/67 132/114/67 134/116/67 133/117/67
f 133/117/67 134/116/67 136/118/67 135/119/67
f 135/119/67 136/118/67 138/120/67 137/121/67
f 137/121/67 138/120/67 140/122/67 139/123/67
f 139/123/67 140/122/67 142/124/67 141/125/67
f 141/125/67 142/124/67 144/126/67 143/127/67
f 143/127/67 144/126/67 146/128/67 145/129/67
f 145/129/67 146/128/67 148/130/67 147/131/67
f 147/131/67 148/130/67 150/132/67 149/133/67
f 149/133/67 150/132/67 152/134/67 151/135/67
f 151/135/67 152/134/67 154/136/67 153/137/67
f 153/137/67 154/136/67 156/138/67 155/139/67
f 155/139/67 156/138/67 158/140/67 157/141/67
f 157/141/67 158/140/67 160/142/67 159/143/67
f 159/143/67 160/142/67 162/144/67 161/145/67
f 161/145/67 162/144/67 164/146/67 163/147/67
f 163/147/67 164/146/67 166/148/67 165/149/67
f 165/149/67 166/148/67 168/150/67 167/151/67
f 167/151/67 168/150/67 170/152/67 169/153/67
f 169/153/67 170/152/67 172/154/67 171/155/67
f 171/155/67 172/154/67 174/156/67 173/157/67
f 173/157/67 174/156/67 176/158/67 175/159/67
f 175/159/67 176/158/67 178/160/67 177/161/67
f 177/161/67 178/160/67 180/162/67 179/163/67
f 179/163/67 180/162/67 182/164/67 181/165/67
f 181/165/67 182/164/67 184/166/67 183/167/67
f 183/167/67 184/166/67 186/168/67 185/169/67
f 185/169/67 186/168/67 188/170/67 187/171/67
f 187/171/67 188/170/67 190/172/67 189/173/67
f 132/174/67 130/175/67 192/176/67 190/177/67 188/178/67 186/179/67 184/180/67 182/181/67 180/182/67 178/183/67 176/184/67 174/185/67 172/186/67 170/187/67 168/188/67 166/189/67 164/190/67 162/191/67 160/192/67 158/193/67 156/194/67 154/195/67 152/196/67 150/197/67 148/198/67 146/199/67 144/200/67 142/201/67 140/202/67 138/203/67 136/204/67 134/205/67
f 189/173/67 190/172/67 192/206/67 191/207/67
f 191/207/67 192/206/67 130/208/67 129/209/67
f 129/210/67 131/211/67 133/212/67 135/213/67 137/214/67 139/215/67 141/216/67 143/217/67 145/218/67 147/219/67 149/220/67 151/221/67 153/222/67 155/223/67 157/224/67 159/225/67 161/226/67 163/227/67 165/228/67 167/229/67 169/230/67 171/231/67 173/232/67 175/233/67 177/234/67 179/235/67 181/236/67 183/237/67 185/238/67 187/239/67 189/240/67 191/241/67
